<svg width="93" height="93" viewBox="0 0 93 93" fill="none" xmlns="http://www.w3.org/2000/svg">
<path fill-rule="evenodd" clip-rule="evenodd" d="M46.5 93C72.181 93 93 72.181 93 46.5C93 20.819 72.181 0 46.5 0C20.819 0 0 20.819 0 46.5C0 72.181 20.819 93 46.5 93Z" fill="white"/>
<path fill-rule="evenodd" clip-rule="evenodd" d="M46.41 21.265L68.316 29.88C68.721 30.042 69.005 30.46 69 30.89V59.967C68.9945 60.181 68.927 60.3889 68.8055 60.5652C68.6841 60.7415 68.514 60.8787 68.316 60.96L46.41 69.575C46.15 69.679 45.848 69.679 45.588 69.575L23.685 60.96C23.4868 60.8788 23.3165 60.7417 23.1949 60.5654C23.0732 60.389 23.0055 60.1812 23 59.967V30.89C22.996 30.46 23.28 30.041 23.685 29.88L45.589 21.265C45.879 21.148 46.25 21.211 46.411 21.265H46.41ZM46 23.435L27.056 30.873L35.048 34.02L53.992 26.582L46 23.436V23.435ZM38.008 35.198L56.952 27.743L64.944 30.873L46 38.327L38.008 35.197V35.198ZM47.095 40.228V66.967L66.81 59.227V32.472L47.095 40.229V40.228ZM25.191 59.227V32.472L33.952 35.922V43.813C33.944 44.382 34.469 44.905 35.048 44.905C35.626 44.905 36.151 44.382 36.143 43.813V36.78L44.905 40.23V66.968L36.143 63.535V55.66C36.154 55.128 35.706 54.625 35.167 54.567C34.55 54.5 33.939 55.049 33.952 55.66V62.677L25.191 59.227Z" fill="#00833E"/>
</svg>
