<svg width="93" height="93" viewBox="0 0 93 93" fill="none" xmlns="http://www.w3.org/2000/svg">
<path fill-rule="evenodd" clip-rule="evenodd" d="M46.5 93C72.181 93 93 72.181 93 46.5C93 20.819 72.181 0 46.5 0C20.819 0 0 20.819 0 46.5C0 72.181 20.819 93 46.5 93Z" fill="white"/>
<path d="M56.078 25.655C55.254 25.655 54.586 26.323 54.586 27.146V34.786C54.586 35.1816 54.7431 35.561 55.0228 35.8407C55.3026 36.1204 55.6819 36.2775 56.0775 36.2775C56.4731 36.2775 56.8524 36.1204 57.1321 35.8407C57.4119 35.561 57.569 35.1816 57.569 34.786V28.703C66.157 29.46 72.915 36.693 72.915 45.475C72.915 54.759 65.362 62.312 56.078 62.312C46.794 62.312 39.24 54.759 39.24 45.475C39.2454 42.8229 39.8745 40.2091 41.0766 37.8451C42.2787 35.481 44.0201 33.4328 46.16 31.866C46.4709 31.6298 46.6767 31.281 46.7331 30.8946C46.7896 30.5083 46.6923 30.1152 46.462 29.7998C46.2318 29.4844 45.887 29.272 45.5018 29.2081C45.1166 29.1442 44.7217 29.2339 44.402 29.458C41.8835 31.302 39.834 33.7126 38.4193 36.495C37.0045 39.2774 36.2642 42.3536 36.258 45.475C36.258 56.403 45.148 65.295 56.078 65.295C67.006 65.295 75.898 56.404 75.898 45.475C75.898 34.545 67.006 25.655 56.078 25.655Z" fill="#00833E"/>
<path d="M46.623 41.574C46.213 42.221 46.45 43.05 47.154 43.426L55.386 47.831C55.619 47.957 55.874 48.016 56.126 48.016C56.634 48.016 57.128 47.775 57.402 47.343C57.812 46.696 57.574 45.867 56.87 45.491L48.639 41.086C47.935 40.709 47.032 40.927 46.622 41.574H46.623ZM17.312 36.836H31.826C32.589 36.836 33.208 36.38 33.208 35.819C33.208 35.258 32.589 34.803 31.826 34.803H17.312C16.549 34.803 15.93 35.258 15.93 35.819C15.93 36.38 16.548 36.836 17.312 36.836ZM15.279 41.917H29.793C30.556 41.917 31.175 41.462 31.175 40.901C31.175 40.34 30.555 39.885 29.793 39.885H15.279C14.516 39.885 13.896 40.34 13.896 40.901C13.896 41.462 14.516 41.917 15.279 41.917ZM31.175 49.032C31.175 48.472 30.555 48.016 29.793 48.016H15.279C14.516 48.016 13.896 48.471 13.896 49.032C13.896 49.593 14.516 50.049 15.279 50.049H29.793C30.556 50.049 31.175 49.594 31.175 49.032ZM33.208 55.13C33.208 54.57 32.589 54.114 31.826 54.114H17.312C16.549 54.114 15.93 54.57 15.93 55.131C15.93 55.691 16.549 56.147 17.312 56.147H31.826C32.589 56.147 33.208 55.692 33.208 55.131V55.13Z" fill="#00833E"/>
</svg>
