<svg width="40" height="40" viewBox="0 0 40 40" fill="none" xmlns="http://www.w3.org/2000/svg">
<circle cx="20" cy="20" r="20" fill="white"/>
<path fill-rule="evenodd" clip-rule="evenodd" d="M29.5413 14.79C29.6796 14.335 29.5413 14 28.8788 14H26.6913C26.1347 14 25.878 14.2892 25.7388 14.6083C25.7388 14.6083 24.6264 17.2716 23.0506 19.0016C22.5406 19.5032 22.3089 19.6624 22.0306 19.6624C21.8914 19.6624 21.6823 19.5032 21.6823 19.0474V14.79C21.6823 14.2433 21.5289 14 21.0656 14H17.6257C17.2782 14 17.069 14.2533 17.069 14.4942C17.069 15.0116 17.8573 15.1316 17.9382 16.5883V19.7532C17.9382 20.4474 17.8107 20.5732 17.5323 20.5732C16.7907 20.5732 14.9866 17.8974 13.9158 14.8358C13.7083 14.24 13.4983 14 12.9391 14H10.75C10.125 14 10 14.2892 10 14.6083C10 15.1766 10.7417 17.9999 13.4541 21.734C15.2624 24.284 17.8082 25.6664 20.1273 25.6664C21.5181 25.6664 21.6898 25.3598 21.6898 24.8306V22.9031C21.6898 22.289 21.8214 22.1665 22.2622 22.1665C22.5872 22.1665 23.1431 22.3265 24.4414 23.5556C25.9247 25.0131 26.1688 25.6664 27.0038 25.6664H29.1913C29.8163 25.6664 30.1296 25.3598 29.9496 24.7531C29.7513 24.1498 29.0429 23.274 28.1038 22.2348C27.5938 21.6432 26.8288 21.0057 26.5963 20.6865C26.2722 20.2774 26.3647 20.0949 26.5963 19.7307C26.5963 19.7307 29.2629 16.0425 29.5404 14.79H29.5413Z" fill="black"/>
</svg>
