<svg width="40" height="40" viewBox="0 0 40 40" fill="none" xmlns="http://www.w3.org/2000/svg">
<circle cx="20" cy="20" r="20" fill="white"/>
<path d="M30.5603 15.1977C30.4414 14.7736 30.2098 14.3896 29.8901 14.0866C29.5614 13.7742 29.1585 13.5508 28.7195 13.4374C27.0765 13.0043 20.4939 13.0043 20.4939 13.0043C17.7497 12.9731 15.0061 13.1104 12.2787 13.4155C11.8397 13.5373 11.4376 13.7657 11.1081 14.0804C10.7844 14.3919 10.55 14.776 10.4275 15.1968C10.1333 16.7819 9.9903 18.3913 10.0005 20.0034C9.99004 21.6141 10.1326 23.223 10.4275 24.81C10.5473 25.2291 10.7809 25.6114 11.1055 25.9202C11.4301 26.2291 11.8343 26.4522 12.2787 26.5703C13.9436 27.0025 20.4939 27.0025 20.4939 27.0025C23.2416 27.0337 25.9886 26.8964 28.7195 26.5913C29.1585 26.4778 29.5614 26.2544 29.8901 25.9421C30.2097 25.6391 30.441 25.2551 30.5594 24.831C30.8613 23.2465 31.0081 21.6364 30.9977 20.0235C31.0204 18.4038 30.8738 16.7861 30.5603 15.1968V15.1977ZM18.4012 22.999V17.0087L23.8779 20.0043L18.4012 22.999Z" fill="black"/>
</svg>
