<svg width="129" height="71" viewBox="0 0 129 71" fill="none" xmlns="http://www.w3.org/2000/svg">
<path d="M6.29224 16.2896L10.3375 1.2002H17.0375C18.9759 1.2002 20.3665 1.66513 21.2092 2.63728C22.0941 3.60942 22.3048 4.87743 21.8835 6.44133C21.4199 8.13201 20.4507 9.44229 18.9759 10.3722C17.5011 11.302 15.7734 11.767 13.8772 11.767H11.1382L9.91614 16.2896H6.29224ZM11.8966 8.85051H14.7621C15.647 8.85051 16.4055 8.63917 17.0375 8.2165C17.6696 7.79383 18.0489 7.24436 18.2595 6.52582C18.4702 5.80728 18.3438 5.21554 17.9224 4.83516C17.5011 4.45475 16.869 4.24342 15.9419 4.24342H13.1608L11.8966 8.85051Z" fill="#00833E"/>
<path d="M36.1266 14.3031C34.0618 15.8247 31.7864 16.5855 29.3002 16.5855C26.814 16.5855 24.9599 15.8247 23.6958 14.3031C22.4738 12.7814 22.1367 10.964 22.7266 8.76607C23.3165 6.61045 24.6228 4.75069 26.6876 3.22907C28.7524 1.70746 31.0279 0.946655 33.514 0.946655C36.0002 0.946655 37.8543 1.70746 39.1184 3.22907C40.3405 4.75069 40.6776 6.56818 40.0876 8.76607C39.4977 10.9217 38.1914 12.7814 36.1266 14.3031ZM26.9826 12.1474C27.6568 13.0773 28.7103 13.5422 30.1851 13.5422C31.6178 13.5422 32.9241 13.0773 34.0618 12.1897C35.2417 11.2598 36.0002 10.1609 36.3373 8.80833C36.6744 7.49806 36.5059 6.35684 35.8316 5.42697C35.1574 4.49709 34.0618 4.03215 32.6291 4.03215C31.1964 4.03215 29.8901 4.49709 28.7524 5.3847C27.5725 6.31458 26.814 7.41352 26.4769 8.76607C26.0977 10.0763 26.2662 11.2176 26.9826 12.1474Z" fill="#00833E"/>
<path d="M40.2139 16.2896L44.259 1.2002H47.5879L52.7709 10.499L55.2571 1.2002H58.7967L54.7515 16.2896H51.6753L46.3238 6.69493L43.7533 16.2896H40.2139Z" fill="#00833E"/>
<path d="M62.6732 16.2896L64.2745 10.3299L60.4399 1.2002H64.6537L66.9292 7.2444L72.5336 1.2002H76.621L67.8984 10.2876L66.2971 16.2896H62.6732Z" fill="#00833E"/>
<path d="M0.940735 36.4088L4.98603 21.3194H17.3326L16.532 24.2781H7.72502L6.92439 27.3213H14.6357L13.8351 30.28H6.12376L5.28099 33.4501H14.1722L13.3716 36.4088H0.940735Z" fill="#00833E"/>
<path d="M14.6779 36.4088L22.4313 28.7161L18.9338 21.3194H23.1477L25.2546 26.2224L30.0162 21.3194H34.1037L26.6452 28.6739L30.2691 36.4088H26.0552L23.7798 31.2521L18.7231 36.4088H14.6779Z" fill="#00833E"/>
<path d="M32.2916 36.4088L36.3369 21.3194H43.0368C44.9752 21.3194 46.3658 21.7843 47.2507 22.7565C48.1356 23.7286 48.3463 24.9966 47.9249 26.5605C47.4614 28.2512 46.4922 29.5615 45.0173 30.4914C43.5425 31.4212 41.8148 31.8861 39.9186 31.8861H37.1796L35.9576 36.4088H32.2916ZM37.896 28.9274H40.7614C41.6463 28.9274 42.4048 28.7161 43.0368 28.2934C43.6689 27.8708 44.0481 27.3213 44.2588 26.6028C44.4695 25.8842 44.3431 25.2925 43.9217 24.9121C43.5003 24.5317 42.8683 24.3204 41.9413 24.3204H39.1601L37.896 28.9274Z" fill="#00833E"/>
<path d="M47.2086 36.4088L51.2538 21.3194H58.7123C60.7771 21.3194 62.252 21.8266 63.0526 22.841C63.769 23.6864 63.8954 24.8698 63.5161 26.3492C62.884 28.6739 61.3249 30.2377 58.7545 31.0408L61.3249 36.4088H57.1111L54.8356 31.5903H52.0545L50.7482 36.4088H47.2086ZM52.8551 28.6739H56.5212C57.4061 28.6739 58.1224 28.4625 58.7123 28.0821C59.3023 27.7017 59.6815 27.1523 59.8501 26.5183C60.0186 25.7997 59.9344 25.2925 59.513 24.9121C59.0916 24.5317 58.4595 24.3626 57.5746 24.3626H53.9928L52.8551 28.6739Z" fill="#00833E"/>
<path d="M63.432 36.4088L67.4773 21.3194H79.8238L79.0232 24.2781H70.2584L69.4578 27.3213H77.1691L76.3685 30.28H68.6572L67.8144 33.4501H76.7056L75.905 36.4088H63.432Z" fill="#00833E"/>
<path d="M84.1642 36.62C81.4674 36.62 79.4026 35.8169 77.8856 34.2108L80.6246 31.8438C81.8888 33.0696 83.3636 33.6613 85.007 33.6613C85.7234 33.6613 86.3554 33.5345 86.8611 33.2809C87.3668 33.0273 87.6617 32.6469 87.7881 32.182C87.9146 31.7593 87.7881 31.4212 87.4089 31.1253C87.0297 30.8717 86.229 30.5758 85.007 30.2377C84.1221 30.0264 83.4479 29.815 82.9001 29.6037C82.3944 29.3924 81.8888 29.1388 81.4674 28.7583C81.046 28.4202 80.751 27.9975 80.6668 27.4481C80.5825 26.9409 80.6246 26.3069 80.7932 25.546C81.1724 24.1935 81.973 23.0946 83.2793 22.2492C84.5856 21.4039 86.0605 20.9812 87.746 20.9812C90.0636 20.9812 91.9177 21.6152 93.3083 22.8832L90.78 25.377C89.5158 24.4048 88.2095 23.8976 86.9454 23.8976C86.2712 23.8976 85.7234 24.0244 85.302 24.278C84.8806 24.5316 84.5856 24.8698 84.5014 25.2502C84.3749 25.7574 84.5013 26.0955 84.8806 26.3491C85.2598 26.6027 86.1448 26.8986 87.4932 27.2367C89.1366 27.6594 90.3165 28.2089 90.9907 28.8851C91.6649 29.5614 91.8334 30.5336 91.4963 31.8016C91.1171 33.2809 90.2322 34.4221 88.9259 35.2252C87.5353 36.2396 85.9762 36.62 84.1642 36.62Z" fill="#00833E"/>
<path d="M98.1963 36.62C95.4994 36.62 93.4346 35.8169 91.9177 34.2108L94.6567 31.8438C95.9208 33.0696 97.3957 33.6613 99.0391 33.6613C99.7554 33.6613 100.387 33.5345 100.893 33.2809C101.399 33.0273 101.694 32.6469 101.82 32.182C101.947 31.7593 101.82 31.4212 101.441 31.1253C101.062 30.8717 100.261 30.5758 99.0391 30.2377C98.1541 30.0264 97.4799 29.815 96.9321 29.6037C96.4265 29.3924 95.9208 29.1388 95.4994 28.7583C95.078 28.4202 94.7831 27.9975 94.6988 27.4481C94.6145 26.9409 94.6567 26.3069 94.8252 25.546C95.2045 24.1935 96.0051 23.0946 97.3114 22.2492C98.6177 21.4039 100.093 20.9812 101.778 20.9812C104.096 20.9812 105.95 21.6152 107.34 22.8832L104.812 25.377C103.548 24.4048 102.242 23.8976 100.977 23.8976C100.303 23.8976 99.7554 24.0244 99.334 24.278C98.9126 24.5316 98.6177 24.8698 98.5334 25.2502C98.407 25.7574 98.5334 26.0955 98.9126 26.3491C99.2919 26.6027 100.177 26.8986 101.525 27.2367C103.169 27.6594 104.348 28.2089 105.023 28.8851C105.697 29.5614 105.865 30.5336 105.528 31.8016C105.149 33.2809 104.264 34.4221 102.958 35.2252C101.567 36.2396 100.008 36.62 98.1963 36.62Z" fill="#00833E"/>
<path d="M76.6634 46.891L74.5986 54.6259H109.784L99.8395 64.6009L105.275 70.0533L128.325 46.891H76.6634Z" fill="#76BC21"/>
</svg>
