<svg width="104" height="93" viewBox="0 0 104 93" fill="none" xmlns="http://www.w3.org/2000/svg">
<path d="M92.5 46.5C92.5 71.9049 71.9049 92.5 46.5 92.5C21.0951 92.5 0.5 71.9049 0.5 46.5C0.5 21.0951 21.0951 0.5 46.5 0.5C71.9049 0.5 92.5 21.0951 92.5 46.5Z" stroke="#00833E"/>
<path fill-rule="evenodd" clip-rule="evenodd" d="M47.25 25.858C36.546 25.858 27.832 34.559 27.832 45.278C27.8281 48.5731 28.6594 51.8154 30.2481 54.7022C31.8368 57.589 34.1312 60.0261 36.917 61.786H32.825C32.546 61.7813 32.2755 61.8814 32.0668 62.0666C31.8581 62.2517 31.7265 62.5085 31.698 62.786C31.663 63.107 31.767 63.428 31.983 63.667C32.199 63.906 32.506 64.038 32.825 64.031H40.592C41.205 64.031 41.702 63.529 41.702 62.909V55.049C41.7051 54.8509 41.656 54.6555 41.5594 54.4826C41.4628 54.3096 41.3223 54.1652 41.152 54.064C40.9825 53.9635 40.789 53.9105 40.592 53.9105C40.3949 53.9105 40.2015 53.9635 40.032 54.064C39.687 54.268 39.477 54.644 39.482 55.05V60.663C36.6407 59.222 34.2549 57.021 32.5901 54.3048C30.9252 51.5886 30.0466 48.4638 30.052 45.278C30.052 35.788 37.731 28.104 47.25 28.104C47.65 28.11 48.022 27.897 48.224 27.547C48.425 27.197 48.425 26.765 48.224 26.415C48.126 26.2438 47.984 26.1019 47.8128 26.0039C47.6415 25.906 47.4472 25.8556 47.25 25.858ZM47.25 62.908C46.971 62.9033 46.7005 63.0034 46.4918 63.1886C46.2831 63.3737 46.1515 63.6305 46.123 63.908C46.088 64.23 46.191 64.551 46.407 64.79C46.623 65.028 46.93 65.161 47.25 65.154C57.953 65.154 66.667 56.454 66.667 45.734C66.667 38.8 63.039 32.674 57.565 29.227H61.657C61.977 29.234 62.283 29.101 62.499 28.862C62.715 28.624 62.819 28.302 62.784 27.981C62.7555 27.7035 62.6239 27.4467 62.4152 27.2616C62.2065 27.0764 61.9359 26.9763 61.657 26.981H53.89C53.277 26.981 52.78 27.484 52.78 28.104V35.963C52.774 36.368 52.984 36.746 53.33 36.95C53.676 37.155 54.104 37.155 54.45 36.95C54.795 36.746 55.006 36.368 55 35.963V30.332C57.8468 31.7723 60.2377 33.975 61.9059 36.6945C63.5742 39.4141 64.4542 42.5435 64.448 45.734C64.448 55.224 56.768 62.909 47.25 62.909V62.908Z" fill="#00833E"/>
<circle cx="88" cy="16" r="16" fill="#6CBE37"/>
<path d="M92.54 23H83.74V21.16C85.3533 19.5867 86.4667 18.4467 87.08 17.74C88.7333 15.8467 89.56 14.2533 89.56 12.96C89.56 12.3867 89.4067 11.94 89.1 11.62C88.7933 11.3 88.3533 11.14 87.78 11.14C86.7533 11.14 86.08 11.7667 85.76 13.02L83.84 12.16C84.0267 11.1333 84.4933 10.3267 85.24 9.74C86 9.14 86.9333 8.84 88.04 8.84C89.2933 8.84 90.2667 9.2 90.96 9.92C91.6533 10.6267 92 11.4867 92 12.5C92 13.22 91.8467 13.9867 91.54 14.8C91.2333 15.5867 90.88 16.2733 90.48 16.86C90.0667 17.4733 89.58 18.0733 89.02 18.66C88.54 19.1933 88.1 19.6467 87.7 20.02C87.5 20.2067 87.1733 20.4867 86.72 20.86H92.54V23Z" fill="white"/>
</svg>
