<svg width="104" height="93" viewBox="0 0 104 93" fill="none" xmlns="http://www.w3.org/2000/svg">
<circle cx="46.5" cy="46.5" r="46" stroke="#00833E"/>
<path d="M26.3494 35.0773L47 23.1547L67.6506 35.0773V58.9226L47 70.8453L26.3494 58.9226V35.0773Z" stroke="#00833E" stroke-width="2"/>
<path d="M48 37.2173L48 36.2173L46 36.2173L46 37.2173L48 37.2173ZM46.2929 56.4027C46.6834 56.7932 47.3166 56.7932 47.7071 56.4027L54.0711 50.0387C54.4616 49.6482 54.4616 49.015 54.0711 48.6245C53.6805 48.234 53.0474 48.234 52.6569 48.6245L47 54.2813L41.3431 48.6245C40.9526 48.234 40.3195 48.234 39.9289 48.6245C39.5384 49.015 39.5384 49.6482 39.9289 50.0387L46.2929 56.4027ZM46 37.2173L46 55.6955L48 55.6955L48 37.2173L46 37.2173Z" fill="#00833E"/>
<circle cx="88" cy="16" r="16" fill="#6CBE37"/>
<path d="M91 23H88.7V19.76H82.3V18.06L87.7 9H90.34L85.28 17.46H88.7V14H91V17.46H92.8V19.76H91V23Z" fill="white"/>
</svg>
