<svg width="187" height="385" viewBox="0 0 187 385" fill="none" xmlns="http://www.w3.org/2000/svg">
<path d="M15 29V385" stroke="black"/>
<circle cx="15" cy="142" r="5.5" fill="white" stroke="black"/>
<circle cx="15" cy="281" r="14" fill="white" stroke="black" stroke-width="2"/>
<circle cx="15" cy="235" r="14" fill="white" stroke="black" stroke-width="2"/>
<circle cx="15" cy="189" r="14" fill="white" stroke="black" stroke-width="2"/>
<circle cx="15" cy="15" r="14" stroke="black" stroke-width="2"/>
<path d="M54.71 149.34H53.27V145.56H54.62C55.016 145.056 55.424 144.078 55.844 142.626C56.276 141.174 56.558 139.272 56.69 136.92L56.816 134.4H64.232V145.56H65.942V149.34H64.502V147H54.71V149.34ZM58.292 135.84L58.13 138.09C58.01 139.95 57.752 141.582 57.356 142.986C56.984 144.306 56.636 145.164 56.312 145.56H62.702V135.84H58.292ZM73.7817 144.984L74.2317 146.118C73.4517 146.826 72.4377 147.18 71.1897 147.18C69.8697 147.18 68.8197 146.796 68.0397 146.028C67.2477 145.26 66.8517 144.234 66.8517 142.95C66.8517 141.738 67.2237 140.73 67.9677 139.926C68.6997 139.122 69.7197 138.72 71.0277 138.72C72.1077 138.72 73.0017 139.068 73.7097 139.764C74.4297 140.448 74.7897 141.336 74.7897 142.428C74.7897 142.776 74.7597 143.1 74.6997 143.4H68.4717C68.5317 144.156 68.8137 144.75 69.3177 145.182C69.8337 145.614 70.4937 145.83 71.2977 145.83C72.3537 145.83 73.1817 145.548 73.7817 144.984ZM70.9557 140.07C70.2477 140.07 69.6597 140.268 69.1917 140.664C68.7357 141.06 68.4657 141.582 68.3817 142.23H73.2957C73.2597 141.558 73.0317 141.03 72.6117 140.646C72.2037 140.262 71.6517 140.07 70.9557 140.07ZM83.4109 147H81.9709V140.34H79.1269L79.0369 141.708C78.9409 142.824 78.7969 143.754 78.6049 144.498C78.4249 145.23 78.1849 145.782 77.8849 146.154C77.5969 146.514 77.2909 146.766 76.9669 146.91C76.6429 147.042 76.2469 147.108 75.7789 147.108L75.6709 145.704C75.8029 145.716 75.9409 145.698 76.0849 145.65C76.2289 145.59 76.3849 145.47 76.5529 145.29C76.7329 145.11 76.8889 144.87 77.0209 144.57C77.1649 144.27 77.2909 143.85 77.3989 143.31C77.5189 142.758 77.5969 142.128 77.6329 141.42L77.7769 138.9H83.4109V147ZM86.4389 140.61L86.0609 139.458C86.8649 138.966 87.7649 138.72 88.7609 138.72C89.8529 138.72 90.6449 138.99 91.1369 139.53C91.6289 140.07 91.8749 140.904 91.8749 142.032V147H90.5069V145.956C89.8709 146.736 89.0069 147.126 87.9149 147.126C87.1709 147.126 86.5709 146.904 86.1149 146.46C85.6589 146.004 85.4309 145.392 85.4309 144.624C85.4309 143.832 85.7129 143.208 86.2769 142.752C86.8409 142.284 87.5789 142.05 88.4909 142.05C89.3429 142.05 90.0149 142.224 90.5069 142.572C90.5069 141.66 90.3809 141.006 90.1289 140.61C89.8769 140.214 89.3909 140.016 88.6709 140.016C87.9389 140.016 87.1949 140.214 86.4389 140.61ZM88.4189 145.83C89.2229 145.83 89.9189 145.482 90.5069 144.786V143.76C90.0029 143.4 89.3969 143.22 88.6889 143.22C88.1969 143.22 87.7829 143.34 87.4469 143.58C87.1229 143.808 86.9609 144.132 86.9609 144.552C86.9609 144.948 87.0869 145.26 87.3389 145.488C87.6029 145.716 87.9629 145.83 88.4189 145.83ZM94.2862 147V138.9C94.3462 138.9 94.4302 138.9 94.5382 138.9C94.6462 138.888 94.8022 138.882 95.0062 138.882C95.2102 138.87 95.3962 138.864 95.5642 138.864C96.4522 138.84 97.0042 138.828 97.2202 138.828C99.5482 138.828 100.712 139.524 100.712 140.916C100.712 141.396 100.562 141.81 100.262 142.158C99.9622 142.494 99.5722 142.698 99.0922 142.77V142.806C100.352 143.034 100.982 143.67 100.982 144.714C100.982 146.286 99.7402 147.072 97.2562 147.072C97.1362 147.072 96.6082 147.06 95.6722 147.036C95.4922 147.036 95.2942 147.03 95.0782 147.018C94.8622 147.018 94.6942 147.012 94.5742 147C94.4542 147 94.3582 147 94.2862 147ZM97.4542 143.364H95.7262V145.848C96.5902 145.884 97.1422 145.902 97.3822 145.902C98.7622 145.902 99.4522 145.47 99.4522 144.606C99.4522 143.778 98.7862 143.364 97.4542 143.364ZM97.3282 139.998C96.9802 139.998 96.4462 140.016 95.7262 140.052V142.464H97.5442C98.0362 142.464 98.4322 142.35 98.7322 142.122C99.0322 141.894 99.1822 141.588 99.1822 141.204C99.1822 140.4 98.5642 139.998 97.3282 139.998ZM108.437 143.472H104.441V142.302H108.419C108.311 141.582 108.005 141.03 107.501 140.646C107.009 140.262 106.379 140.07 105.611 140.07C104.615 140.07 103.787 140.364 103.127 140.952L102.515 139.872C102.863 139.524 103.325 139.248 103.901 139.044C104.477 138.828 105.041 138.72 105.593 138.72C106.889 138.72 107.927 139.104 108.707 139.872C109.511 140.64 109.913 141.666 109.913 142.95C109.913 144.138 109.523 145.14 108.743 145.956C107.963 146.772 106.985 147.18 105.809 147.18C104.345 147.18 103.259 146.838 102.551 146.154L103.235 145.092C103.787 145.584 104.615 145.83 105.719 145.83C106.475 145.83 107.093 145.626 107.573 145.218C108.053 144.798 108.341 144.216 108.437 143.472ZM113.427 150.6H111.987V138.9H113.427V139.854C113.715 139.518 114.111 139.248 114.615 139.044C115.119 138.828 115.641 138.72 116.181 138.72C117.333 138.72 118.239 139.104 118.899 139.872C119.583 140.628 119.925 141.612 119.925 142.824C119.925 144.06 119.535 145.098 118.755 145.938C117.987 146.766 116.973 147.18 115.713 147.18C114.741 147.18 113.979 146.994 113.427 146.622V150.6ZM115.767 140.07C114.807 140.07 114.027 140.442 113.427 141.186V145.2C114.063 145.62 114.783 145.83 115.587 145.83C116.439 145.83 117.117 145.56 117.621 145.02C118.137 144.468 118.395 143.754 118.395 142.878C118.395 142.026 118.161 141.348 117.693 140.844C117.225 140.328 116.583 140.07 115.767 140.07Z" fill="black"/>
<path d="M56.42 195H54.89V182.4H61.91V183.84H56.42V195ZM67.1372 192.984L67.5872 194.118C66.8072 194.826 65.7932 195.18 64.5452 195.18C63.2252 195.18 62.1752 194.796 61.3952 194.028C60.6032 193.26 60.2072 192.234 60.2072 190.95C60.2072 189.738 60.5792 188.73 61.3232 187.926C62.0552 187.122 63.0752 186.72 64.3832 186.72C65.4632 186.72 66.3572 187.068 67.0652 187.764C67.7852 188.448 68.1452 189.336 68.1452 190.428C68.1452 190.776 68.1152 191.1 68.0552 191.4H61.8272C61.8872 192.156 62.1692 192.75 62.6732 193.182C63.1892 193.614 63.8492 193.83 64.6532 193.83C65.7092 193.83 66.5372 193.548 67.1372 192.984ZM64.3112 188.07C63.6032 188.07 63.0152 188.268 62.5472 188.664C62.0912 189.06 61.8212 189.582 61.7372 190.23H66.6512C66.6152 189.558 66.3872 189.03 65.9672 188.646C65.5592 188.262 65.0072 188.07 64.3112 188.07ZM71.5387 198.6H70.0987V186.9H71.5387V187.854C71.8267 187.518 72.2227 187.248 72.7267 187.044C73.2307 186.828 73.7527 186.72 74.2927 186.72C75.4447 186.72 76.3507 187.104 77.0107 187.872C77.6947 188.628 78.0367 189.612 78.0367 190.824C78.0367 192.06 77.6467 193.098 76.8667 193.938C76.0987 194.766 75.0847 195.18 73.8247 195.18C72.8527 195.18 72.0907 194.994 71.5387 194.622V198.6ZM73.8787 188.07C72.9187 188.07 72.1387 188.442 71.5387 189.186V193.2C72.1747 193.62 72.8947 193.83 73.6987 193.83C74.5507 193.83 75.2287 193.56 75.7327 193.02C76.2487 192.468 76.5067 191.754 76.5067 190.878C76.5067 190.026 76.2727 189.348 75.8047 188.844C75.3367 188.328 74.6947 188.07 73.8787 188.07ZM81.5407 195H80.1007V186.9H81.4147L84.5287 190.914L87.4807 186.9H88.7587V195H87.3187V189.096L84.5107 192.858H84.4567L81.5407 189.096V195ZM91.8003 188.61L91.4223 187.458C92.2263 186.966 93.1263 186.72 94.1223 186.72C95.2143 186.72 96.0063 186.99 96.4983 187.53C96.9903 188.07 97.2363 188.904 97.2363 190.032V195H95.8683V193.956C95.2323 194.736 94.3683 195.126 93.2763 195.126C92.5323 195.126 91.9323 194.904 91.4763 194.46C91.0203 194.004 90.7923 193.392 90.7923 192.624C90.7923 191.832 91.0743 191.208 91.6383 190.752C92.2023 190.284 92.9403 190.05 93.8523 190.05C94.7043 190.05 95.3763 190.224 95.8683 190.572C95.8683 189.66 95.7423 189.006 95.4903 188.61C95.2383 188.214 94.7523 188.016 94.0323 188.016C93.3003 188.016 92.5563 188.214 91.8003 188.61ZM93.7803 193.83C94.5843 193.83 95.2803 193.482 95.8683 192.786V191.76C95.3643 191.4 94.7583 191.22 94.0503 191.22C93.5583 191.22 93.1443 191.34 92.8083 191.58C92.4843 191.808 92.3223 192.132 92.3223 192.552C92.3223 192.948 92.4483 193.26 92.7003 193.488C92.9643 193.716 93.3243 193.83 93.7803 193.83ZM107.028 195H105.588V191.58H101.088V195H99.6476V186.9H101.088V190.23H105.588V186.9H107.028V195ZM115.752 188.97L111.072 195H109.632V186.9H111.072V192.93L115.752 186.9H117.192V195H115.752V188.97ZM123.356 186.9H125.876V195H124.436V192.3H122.87L120.89 195H119.144L121.484 191.94C120.992 191.832 120.578 191.568 120.242 191.148C119.906 190.716 119.738 190.2 119.738 189.6C119.738 188.772 120.038 188.118 120.638 187.638C121.238 187.146 122.144 186.9 123.356 186.9ZM121.268 189.636C121.268 190.02 121.418 190.338 121.718 190.59C122.018 190.83 122.372 190.95 122.78 190.95H124.436V188.25H123.122C122.51 188.25 122.048 188.376 121.736 188.628C121.424 188.88 121.268 189.216 121.268 189.636Z" fill="black"/>
<path d="M54.89 240.982V228.418C56.558 228.37 57.71 228.346 58.346 228.346C59.714 228.346 60.728 228.622 61.388 229.174C62.06 229.714 62.396 230.476 62.396 231.46C62.396 232.192 62.204 232.804 61.82 233.296C61.436 233.788 60.908 234.148 60.236 234.376V234.412C61.052 234.544 61.688 234.868 62.144 235.384C62.612 235.9 62.846 236.572 62.846 237.4C62.846 238.6 62.438 239.512 61.622 240.136C60.806 240.748 59.69 241.054 58.274 241.054C56.894 241.054 55.766 241.03 54.89 240.982ZM58.454 235.258H56.42V239.542C56.912 239.59 57.56 239.614 58.364 239.614C59.312 239.614 60.038 239.422 60.542 239.038C61.058 238.642 61.316 238.066 61.316 237.31C61.316 236.65 61.064 236.146 60.56 235.798C60.068 235.438 59.366 235.258 58.454 235.258ZM58.31 229.786C57.95 229.786 57.32 229.804 56.42 229.84V233.908H58.436C59.144 233.908 59.726 233.722 60.182 233.35C60.638 232.966 60.866 232.45 60.866 231.802C60.866 230.458 60.014 229.786 58.31 229.786ZM71.7954 238.984L72.2454 240.118C71.4654 240.826 70.4514 241.18 69.2034 241.18C67.8834 241.18 66.8334 240.796 66.0534 240.028C65.2614 239.26 64.8654 238.234 64.8654 236.95C64.8654 235.738 65.2374 234.73 65.9814 233.926C66.7134 233.122 67.7334 232.72 69.0414 232.72C70.1214 232.72 71.0154 233.068 71.7234 233.764C72.4434 234.448 72.8034 235.336 72.8034 236.428C72.8034 236.776 72.7734 237.1 72.7134 237.4H66.4854C66.5454 238.156 66.8274 238.75 67.3314 239.182C67.8474 239.614 68.5074 239.83 69.3114 239.83C70.3674 239.83 71.1954 239.548 71.7954 238.984ZM68.9694 234.07C68.2614 234.07 67.6734 234.268 67.2054 234.664C66.7494 235.06 66.4794 235.582 66.3954 236.23H71.3094C71.2734 235.558 71.0454 235.03 70.6254 234.646C70.2174 234.262 69.6654 234.07 68.9694 234.07ZM81.4245 241H79.9845V234.34H77.1405L77.0505 235.708C76.9545 236.824 76.8105 237.754 76.6185 238.498C76.4385 239.23 76.1985 239.782 75.8985 240.154C75.6105 240.514 75.3045 240.766 74.9805 240.91C74.6565 241.042 74.2605 241.108 73.7925 241.108L73.6845 239.704C73.8165 239.716 73.9545 239.698 74.0985 239.65C74.2425 239.59 74.3985 239.47 74.5665 239.29C74.7465 239.11 74.9025 238.87 75.0345 238.57C75.1785 238.27 75.3045 237.85 75.4125 237.31C75.5325 236.758 75.6105 236.128 75.6465 235.42L75.7905 232.9H81.4245V241ZM90.1406 234.97L85.4606 241H84.0206V232.9H85.4606V238.93L90.1406 232.9H91.5806V241H90.1406V234.97ZM99.4003 232.9H101.29L97.7443 236.77L101.632 241H99.6343L95.9803 236.86L99.4003 232.9ZM95.6383 241H94.1983V232.9H95.6383V241ZM103.372 239.992C102.58 239.176 102.184 238.162 102.184 236.95C102.184 235.726 102.58 234.718 103.372 233.926C104.176 233.122 105.22 232.72 106.504 232.72C107.788 232.72 108.826 233.122 109.618 233.926C110.422 234.718 110.824 235.726 110.824 236.95C110.824 238.174 110.422 239.188 109.618 239.992C108.826 240.784 107.788 241.18 106.504 241.18C105.232 241.18 104.188 240.784 103.372 239.992ZM104.506 234.88C103.978 235.408 103.714 236.098 103.714 236.95C103.714 237.802 103.972 238.492 104.488 239.02C105.016 239.56 105.688 239.83 106.504 239.83C107.32 239.83 107.986 239.566 108.502 239.038C109.03 238.498 109.294 237.802 109.294 236.95C109.294 236.122 109.03 235.432 108.502 234.88C107.986 234.34 107.32 234.07 106.504 234.07C105.688 234.07 105.022 234.34 104.506 234.88ZM119.165 228.22L119.939 229.354C119.651 229.75 119.303 230.02 118.895 230.164C118.451 230.32 117.947 230.44 117.383 230.524C116.831 230.608 116.309 230.758 115.817 230.974C114.593 231.538 113.909 232.84 113.765 234.88H113.801C114.065 234.316 114.491 233.86 115.079 233.512C115.679 233.164 116.321 232.99 117.005 232.99C118.157 232.99 119.069 233.356 119.741 234.088C120.425 234.82 120.767 235.798 120.767 237.022C120.767 238.174 120.377 239.158 119.597 239.974C118.829 240.778 117.833 241.18 116.609 241.18C115.289 241.18 114.245 240.73 113.477 239.83C112.709 238.942 112.325 237.712 112.325 236.14C112.325 232.636 113.327 230.458 115.331 229.606C115.787 229.402 116.315 229.252 116.915 229.156C117.383 229.072 117.719 229.006 117.923 228.958C118.127 228.91 118.343 228.826 118.571 228.706C118.811 228.586 119.009 228.424 119.165 228.22ZM113.855 236.41C113.855 237.442 114.107 238.27 114.611 238.894C115.115 239.518 115.769 239.83 116.573 239.83C117.353 239.83 117.989 239.566 118.481 239.038C118.985 238.522 119.237 237.874 119.237 237.094C119.237 236.266 119.003 235.6 118.535 235.096C118.079 234.592 117.449 234.34 116.645 234.34C115.913 234.34 115.301 234.544 114.809 234.952C114.293 235.372 113.975 235.858 113.855 236.41ZM124.273 244.6H122.833V232.9H124.273V233.854C124.561 233.518 124.957 233.248 125.461 233.044C125.965 232.828 126.487 232.72 127.027 232.72C128.179 232.72 129.085 233.104 129.745 233.872C130.429 234.628 130.771 235.612 130.771 236.824C130.771 238.06 130.381 239.098 129.601 239.938C128.833 240.766 127.819 241.18 126.559 241.18C125.587 241.18 124.825 240.994 124.273 240.622V244.6ZM126.613 234.07C125.653 234.07 124.873 234.442 124.273 235.186V239.2C124.909 239.62 125.629 239.83 126.433 239.83C127.285 239.83 127.963 239.56 128.467 239.02C128.983 238.468 129.241 237.754 129.241 236.878C129.241 236.026 129.007 235.348 128.539 234.844C128.071 234.328 127.429 234.07 126.613 234.07ZM138.955 234.97L134.275 241H132.835V232.9H134.275V238.93L138.955 232.9H140.395V241H138.955V234.97ZM144.957 234.34H141.987V232.9H149.367V234.34H146.397V241H144.957V234.34ZM151.373 234.61L150.995 233.458C151.799 232.966 152.699 232.72 153.695 232.72C154.787 232.72 155.579 232.99 156.071 233.53C156.563 234.07 156.809 234.904 156.809 236.032V241H155.441V239.956C154.805 240.736 153.941 241.126 152.849 241.126C152.105 241.126 151.505 240.904 151.049 240.46C150.593 240.004 150.365 239.392 150.365 238.624C150.365 237.832 150.647 237.208 151.211 236.752C151.775 236.284 152.513 236.05 153.425 236.05C154.277 236.05 154.949 236.224 155.441 236.572C155.441 235.66 155.315 235.006 155.063 234.61C154.811 234.214 154.325 234.016 153.605 234.016C152.873 234.016 152.129 234.214 151.373 234.61ZM153.353 239.83C154.157 239.83 154.853 239.482 155.441 238.786V237.76C154.937 237.4 154.331 237.22 153.623 237.22C153.131 237.22 152.717 237.34 152.381 237.58C152.057 237.808 151.895 238.132 151.895 238.552C151.895 238.948 152.021 239.26 152.273 239.488C152.537 239.716 152.897 239.83 153.353 239.83ZM166.6 241H165.16V237.58H160.66V241H159.22V232.9H160.66V236.23H165.16V232.9H166.6V241ZM175.324 234.97L170.644 241H169.204V232.9H170.644V238.93L175.324 232.9H176.764V241H175.324V234.97ZM182.928 232.9H185.448V241H184.008V238.3H182.442L180.462 241H178.716L181.056 237.94C180.564 237.832 180.15 237.568 179.814 237.148C179.478 236.716 179.31 236.2 179.31 235.6C179.31 234.772 179.61 234.118 180.21 233.638C180.81 233.146 181.716 232.9 182.928 232.9ZM180.84 235.636C180.84 236.02 180.99 236.338 181.29 236.59C181.59 236.83 181.944 236.95 182.352 236.95H184.008V234.25H182.694C182.082 234.25 181.62 234.376 181.308 234.628C180.996 234.88 180.84 235.216 180.84 235.636Z" fill="black"/>
<path d="M62.324 287H60.794V282.32H58.436L55.178 287H53.45L56.942 282.05C56.198 281.75 55.598 281.294 55.142 280.682C54.686 280.058 54.458 279.338 54.458 278.522C54.458 277.31 54.872 276.314 55.7 275.534C56.528 274.742 57.752 274.346 59.372 274.346C59.42 274.346 59.924 274.358 60.884 274.382C61.364 274.394 61.844 274.4 62.324 274.4V287ZM58.256 280.88H60.794V275.84C59.966 275.804 59.396 275.786 59.084 275.786C58.148 275.786 57.41 276.032 56.87 276.524C56.342 277.004 56.078 277.64 56.078 278.432C56.078 279.08 56.294 279.626 56.726 280.07C57.158 280.526 57.668 280.796 58.256 280.88ZM72.8008 287H71.3608V280.25H66.9508V287H65.5108V278.9H72.8008V287ZM76.0553 285.992C75.2633 285.176 74.8673 284.162 74.8673 282.95C74.8673 281.726 75.2633 280.718 76.0553 279.926C76.8593 279.122 77.9033 278.72 79.1873 278.72C80.4713 278.72 81.5093 279.122 82.3013 279.926C83.1053 280.718 83.5073 281.726 83.5073 282.95C83.5073 284.174 83.1053 285.188 82.3013 285.992C81.5093 286.784 80.4713 287.18 79.1873 287.18C77.9153 287.18 76.8713 286.784 76.0553 285.992ZM77.1893 280.88C76.6613 281.408 76.3973 282.098 76.3973 282.95C76.3973 283.802 76.6553 284.492 77.1713 285.02C77.6993 285.56 78.3713 285.83 79.1873 285.83C80.0033 285.83 80.6693 285.566 81.1853 285.038C81.7133 284.498 81.9773 283.802 81.9773 282.95C81.9773 282.122 81.7133 281.432 81.1853 280.88C80.6693 280.34 80.0033 280.07 79.1873 280.07C78.3713 280.07 77.7053 280.34 77.1893 280.88ZM92.9651 287H91.5251V283.58H87.0251V287H85.5851V278.9H87.0251V282.23H91.5251V278.9H92.9651V287ZM101.689 280.97L97.0094 287H95.5694V278.9H97.0094V284.93L101.689 278.9H103.129V287H101.689V280.97ZM109.293 278.9H111.813V287H110.373V284.3H108.807L106.827 287H105.081L107.421 283.94C106.929 283.832 106.515 283.568 106.179 283.148C105.843 282.716 105.675 282.2 105.675 281.6C105.675 280.772 105.975 280.118 106.575 279.638C107.175 279.146 108.081 278.9 109.293 278.9ZM107.205 281.636C107.205 282.02 107.355 282.338 107.655 282.59C107.955 282.83 108.309 282.95 108.717 282.95H110.373V280.25H109.059C108.447 280.25 107.985 280.376 107.673 280.628C107.361 280.88 107.205 281.216 107.205 281.636Z" fill="black"/>
</svg>
