<svg width="104" height="93" viewBox="0 0 104 93" fill="none" xmlns="http://www.w3.org/2000/svg">
<path d="M92.5 46.5C92.5 71.9049 71.9049 92.5 46.5 92.5C21.0951 92.5 0.5 71.9049 0.5 46.5C0.5 21.0951 21.0951 0.5 46.5 0.5C71.9049 0.5 92.5 21.0951 92.5 46.5Z" stroke="#00833E"/>
<path fill-rule="evenodd" clip-rule="evenodd" d="M46.41 21.2649L68.316 29.8799C68.721 30.0419 69.005 30.4599 69 30.8899V59.9669C68.9946 60.1809 68.927 60.3887 68.8056 60.565C68.6841 60.7413 68.514 60.8785 68.316 60.9599L46.41 69.5749C46.15 69.6789 45.848 69.6789 45.588 69.5749L23.685 60.9599C23.4868 60.8787 23.3165 60.7416 23.1949 60.5652C23.0733 60.3889 23.0056 60.181 23 59.9669V30.8899C22.996 30.4599 23.28 30.0409 23.685 29.8799L45.589 21.2649C45.879 21.1479 46.25 21.2109 46.411 21.2649H46.41ZM46 23.4349L27.056 30.8729L35.048 34.0199L53.992 26.5819L46 23.4359V23.4349ZM38.008 35.1979L56.952 27.7429L64.944 30.8729L46 38.3269L38.008 35.1969V35.1979ZM47.095 40.2279V66.9669L66.81 59.2269V32.4719L47.095 40.2289V40.2279ZM25.191 59.2269V32.4719L33.952 35.9219V43.8129C33.944 44.3819 34.469 44.9049 35.048 44.9049C35.626 44.9049 36.151 44.3819 36.143 43.8129V36.7799L44.905 40.2299V66.9679L36.143 63.5349V55.6599C36.154 55.1279 35.706 54.6249 35.167 54.5669C34.55 54.4999 33.939 55.0489 33.952 55.6599V62.6769L25.191 59.2269Z" fill="#00833E"/>
<circle cx="88" cy="16" r="16" fill="#6CBE37"/>
<path d="M87.88 23.22C86.8533 23.22 85.9467 23.0133 85.16 22.6C84.3867 22.1733 83.8133 21.5933 83.44 20.86L84.74 19.18C85.5267 20.34 86.5267 20.92 87.74 20.92C88.4467 20.92 89 20.74 89.4 20.38C89.8 20.02 90 19.5533 90 18.98C90 18.34 89.7667 17.8533 89.3 17.52C88.8467 17.1733 88.2133 17 87.4 17H86.4V14.7H87.3C87.9133 14.7 88.4267 14.52 88.84 14.16C89.2533 13.8 89.46 13.34 89.46 12.78C89.46 12.2467 89.3067 11.8333 89 11.54C88.6933 11.2333 88.2533 11.08 87.68 11.08C86.6 11.08 85.72 11.58 85.04 12.58L83.76 10.96C84.5333 9.50667 85.9133 8.78 87.9 8.78C89.1133 8.78 90.0867 9.10667 90.82 9.76C91.5533 10.4 91.92 11.26 91.92 12.34C91.92 13.9267 91.2067 15.0333 89.78 15.66V15.72C90.62 15.8667 91.2733 16.2467 91.74 16.86C92.22 17.46 92.46 18.1933 92.46 19.06C92.46 20.3267 92.0267 21.34 91.16 22.1C90.2933 22.8467 89.2 23.22 87.88 23.22Z" fill="white"/>
</svg>
