<svg width="52" height="60" viewBox="0 0 52 60" fill="none" xmlns="http://www.w3.org/2000/svg">
<path d="M43.233 59.3301H47.5166C48.6467 59.3301 49.5667 58.392 49.5667 57.2399V54.2238C50.0063 53.7302 50.2722 53.1062 50.3237 52.4472L50.8062 45.8328C51.4705 36.8445 50.4235 27.8117 47.7208 19.2137L46.9916 16.889C45.5504 12.2919 41.8659 8.8589 37.2906 7.78101V6.83072C37.2906 4.46107 35.7084 2.43167 33.4433 1.89941L33.114 1.82164C28.4326 0.726121 23.5616 0.726121 18.8803 1.82164L18.5509 1.89941C16.2858 2.43289 14.7036 4.46107 14.7036 6.83072V7.78344C10.132 8.86376 6.44747 12.2992 5.00745 16.889L4.27832 19.2137C1.57583 27.8118 0.529256 36.8445 1.19413 45.8328L1.67657 52.4472C1.73004 53.1751 2.04477 53.8228 2.51506 54.3149V57.1622C2.51506 58.3154 3.43376 59.2523 4.5639 59.2523H8.8475C9.97765 59.2523 10.8976 58.3154 10.8976 57.1622V54.2165C11.1564 53.9164 11.3666 53.5676 11.4954 53.1714L12.0131 51.5734V53.9552C12.0131 55.1182 12.9415 56.0661 14.0826 56.0661H37.8679C39.0089 56.0661 39.9374 55.1182 39.9374 53.9552V51.4191L40.5049 53.1702C40.647 53.6089 40.884 53.9929 41.1829 54.3113V57.2375C41.1829 58.3907 42.1029 59.3289 43.233 59.3289V59.3301ZM38.3236 52.3645H26.7827V51.351H38.3236V52.3645ZM9.28376 55.9117H4.12764V55.1947C4.29169 55.2227 4.45818 55.2434 4.62952 55.2434H8.68345C8.89004 55.2434 9.08811 55.2142 9.28376 55.1729V55.9117ZM19.8123 13.055H23.3984L25.1908 15.997L25.1884 19.4142H11.9584C11.6425 17.8952 10.8113 14.1694 9.88286 12.129C11.3154 10.8154 13.0542 9.88163 14.9406 9.41304C15.5943 11.5214 17.5314 13.055 19.8135 13.055H19.8123ZM25.9977 6.04813C27.2615 6.04813 28.5278 6.2061 29.7588 6.52084C29.8505 6.54593 29.9352 6.59199 30.0061 6.65539C30.077 6.7188 30.1321 6.79781 30.1672 6.88619C30.2024 6.97458 30.2165 7.06991 30.2084 7.16468C30.2004 7.25944 30.1704 7.35104 30.1209 7.43225L29.297 8.78599C27.1256 8.28828 24.8698 8.28828 22.6984 8.78599L21.8745 7.43346C21.825 7.35224 21.795 7.26065 21.7869 7.16588C21.7788 7.07111 21.7928 6.97575 21.8278 6.8873C21.8627 6.79884 21.9178 6.71971 21.9885 6.65613C22.0592 6.59254 22.1438 6.54623 22.2354 6.52084C23.4644 6.20671 24.728 6.0479 25.9965 6.04813H25.9977ZM37.0537 9.41061C38.942 9.87906 40.6826 10.8137 42.1162 12.129C41.1878 14.1694 40.3566 17.8964 40.0406 19.4142H26.8022L26.8034 15.997L28.5958 13.055H32.1807C34.4653 13.055 36.4011 11.5202 37.0537 9.40939V9.41061ZM40.4441 47.8233L40.1634 49.1442C40.1303 49.3018 40.0444 49.4434 39.9201 49.5457C39.7957 49.6479 39.6402 49.7048 39.4792 49.7069H37.4328V45.7502C37.4324 45.5294 37.3451 45.3177 37.1898 45.1608C37.1582 45.1292 34.0545 41.9405 34.0545 35.0916C34.0557 34.9847 34.0357 34.8786 33.9958 34.7793C33.956 34.6801 33.8969 34.5898 33.8221 34.5134C33.7473 34.437 33.6582 34.376 33.5598 34.3341C33.4614 34.2922 33.3558 34.27 33.2489 34.2689H26.7937L26.801 21.0596H40.0431L40.4441 22.9432C42.2027 31.1433 42.2027 39.6231 40.4441 47.8233ZM25.1787 35.9143L25.1714 49.7069H16.1302V46.0734C16.9165 45.1547 19.2922 41.9016 19.4939 35.9143H25.1787ZM26.7925 35.9143H32.4553C32.6583 41.9016 35.0328 45.1547 35.8202 46.0734V49.7069H26.784L26.7925 35.9143ZM23.6038 10.2734C25.1775 9.98175 26.7961 9.98175 28.3892 10.2746L26.6965 13.055L25.9965 14.2034L25.2978 13.055L23.6038 10.2734ZM11.5489 22.9419L11.9511 21.0584H25.1872L25.1799 34.2689H18.7016C18.5946 34.2698 18.4888 34.2919 18.3903 34.3338C18.2918 34.3756 18.2025 34.4365 18.1276 34.5129C18.0526 34.5893 17.9935 34.6798 17.9535 34.7791C17.9136 34.8784 17.8936 34.9846 17.8947 35.0916C17.8947 41.9405 14.7923 45.1292 14.7631 45.1584C14.6851 45.2359 14.6232 45.3281 14.5811 45.4297C14.5389 45.5312 14.5174 45.6402 14.5177 45.7502V49.7069H12.515C12.354 49.7048 12.1985 49.6479 12.0741 49.5457C11.9498 49.4434 11.864 49.3018 11.8308 49.1442L11.5489 47.8233C9.79056 39.6227 9.79056 31.1425 11.5489 22.9419ZM13.6269 51.351H25.1702V52.3645H13.6257V51.351H13.6269ZM47.9529 55.9117H42.798V55.1935C42.9681 55.2239 43.1406 55.2421 43.3181 55.2421H47.3708C47.5701 55.2421 47.7657 55.2215 47.9541 55.1814V55.9105L47.9529 55.9117ZM47.5154 57.6859H43.233C43.1159 57.6843 43.0042 57.6363 42.9224 57.5525C42.8406 57.4687 42.7954 57.3558 42.7967 57.2387V56.7344H47.9529V57.2387C47.9538 57.3558 47.9083 57.4685 47.8263 57.5522C47.7443 57.6358 47.6325 57.6834 47.5154 57.6847V57.6859ZM46.186 19.7143C48.8256 28.111 49.8483 36.9322 49.1997 45.7101L48.716 52.3256C48.6928 52.668 48.5415 52.9891 48.2922 53.2249C48.0429 53.4606 47.7139 53.5939 47.3708 53.598H43.3181C43.0322 53.5968 42.7541 53.5048 42.5239 53.3353C42.2937 53.1658 42.1233 52.9276 42.0372 52.655L41.3118 50.4166C41.5135 50.148 41.6666 49.8381 41.7407 49.493L42.0214 48.1721C43.8298 39.7417 43.8298 31.0236 42.0214 22.5932L41.5208 20.2454C41.8124 18.7641 42.5586 15.432 43.329 13.4208C44.2611 14.5752 44.9938 15.912 45.4556 17.3897L46.1847 19.7143H46.186ZM16.3174 6.83072C16.3174 5.23029 17.3843 3.86197 18.9143 3.50348L19.2424 3.42571C23.685 2.38537 28.308 2.38537 32.7506 3.42571L33.0799 3.50348C34.6099 3.86197 35.6768 5.23029 35.6768 6.83072V7.84663C35.6768 9.81162 34.1092 11.4096 32.1819 11.4096H29.5972L31.4917 8.30112C31.8684 7.68137 31.9291 6.94009 31.6618 6.26565C31.5354 5.93783 31.3323 5.64506 31.0695 5.41186C30.8067 5.17866 30.4918 5.01181 30.1513 4.92528C27.4255 4.22978 24.5687 4.22978 21.8429 4.92528C21.5025 5.01199 21.1877 5.17891 20.925 5.41209C20.6622 5.64527 20.459 5.93794 20.3324 6.26565C20.2 6.59467 20.1464 6.95013 20.1759 7.30358C20.2054 7.65703 20.3173 7.99865 20.5026 8.30112L22.3971 11.4096H19.8123C17.885 11.4096 16.3174 9.81162 16.3174 7.84663V6.83072ZM5.81556 19.7143L6.54469 17.3897C6.99771 15.9451 7.7192 14.599 8.6713 13.422C9.44052 15.4259 10.183 18.7434 10.4771 20.2308L9.974 22.5932C8.166 31.0236 8.166 39.7416 9.974 48.1721L10.2547 49.493C10.3288 49.8393 10.4844 50.1516 10.6885 50.4202L9.96306 52.655C9.87711 52.9274 9.70688 53.1655 9.47692 53.335C9.24695 53.5044 8.96911 53.5965 8.68345 53.598H4.6283C3.92713 53.598 3.33654 53.039 3.28307 52.3256L2.80063 45.7101C2.15223 36.9321 3.1753 28.1109 5.81556 19.7143ZM8.8475 57.6082H4.5639C4.44679 57.6069 4.33498 57.5592 4.25297 57.4756C4.17096 57.392 4.12545 57.2793 4.12642 57.1622V56.7344H9.28376V57.1622C9.28473 57.2793 9.23923 57.392 9.15722 57.4756C9.07521 57.5592 8.96339 57.6069 8.84629 57.6082H8.8475ZM13.6257 53.9552V53.1872H25.1689V54.4207H14.0826C13.9604 54.4194 13.8436 54.3697 13.7579 54.2824C13.6723 54.1952 13.6247 54.0775 13.6257 53.9552ZM37.8679 54.4207H26.7815V53.1872H38.3236V53.9552C38.3245 54.0773 38.2771 54.1948 38.1918 54.282C38.1064 54.3692 37.9899 54.4191 37.8679 54.4207Z" fill="black" stroke="black" stroke-width="0.2"/>
</svg>
