<svg width="93" height="93" viewBox="0 0 93 93" fill="none" xmlns="http://www.w3.org/2000/svg">
<path fill-rule="evenodd" clip-rule="evenodd" d="M46.5 93C72.181 93 93 72.181 93 46.5C93 20.819 72.181 0 46.5 0C20.819 0 0 20.819 0 46.5C0 72.181 20.819 93 46.5 93Z" fill="white"/>
<path fill-rule="evenodd" clip-rule="evenodd" d="M47.25 25.858C36.546 25.858 27.832 34.559 27.832 45.278C27.8282 48.5731 28.6594 51.8154 30.2481 54.7022C31.8368 57.589 34.1312 60.0261 36.917 61.786H32.825C32.5461 61.7813 32.2755 61.8814 32.0668 62.0666C31.8581 62.2517 31.7265 62.5085 31.698 62.786C31.663 63.107 31.767 63.428 31.983 63.667C32.199 63.906 32.506 64.038 32.825 64.031H40.592C41.205 64.031 41.702 63.529 41.702 62.909V55.049C41.7052 54.8509 41.656 54.6555 41.5594 54.4826C41.4628 54.3096 41.3223 54.1652 41.152 54.064C40.9825 53.9635 40.7891 53.9105 40.592 53.9105C40.3949 53.9105 40.2015 53.9635 40.032 54.064C39.687 54.268 39.477 54.644 39.482 55.05V60.663C36.6407 59.222 34.2549 57.021 32.5901 54.3048C30.9253 51.5886 30.0466 48.4638 30.052 45.278C30.052 35.788 37.731 28.104 47.25 28.104C47.65 28.11 48.022 27.897 48.224 27.547C48.425 27.197 48.425 26.765 48.224 26.415C48.126 26.2438 47.9841 26.1019 47.8128 26.0039C47.6416 25.906 47.4473 25.8556 47.25 25.858ZM47.25 62.908C46.9711 62.9033 46.7005 63.0034 46.4918 63.1886C46.2831 63.3737 46.1515 63.6305 46.123 63.908C46.088 64.23 46.191 64.551 46.407 64.79C46.623 65.028 46.93 65.161 47.25 65.154C57.953 65.154 66.667 56.454 66.667 45.734C66.667 38.8 63.039 32.674 57.565 29.227H61.657C61.977 29.234 62.283 29.101 62.499 28.862C62.715 28.624 62.819 28.302 62.784 27.981C62.7555 27.7035 62.6239 27.4467 62.4152 27.2616C62.2065 27.0764 61.936 26.9763 61.657 26.981H53.89C53.277 26.981 52.78 27.484 52.78 28.104V35.963C52.774 36.368 52.984 36.746 53.33 36.95C53.676 37.155 54.104 37.155 54.45 36.95C54.795 36.746 55.006 36.368 55 35.963V30.332C57.8469 31.7723 60.2377 33.975 61.906 36.6945C63.5742 39.4141 64.4543 42.5435 64.448 45.734C64.448 55.224 56.768 62.909 47.25 62.909V62.908Z" fill="#00833E"/>
</svg>
